<svg id="Layer_1" data-name="Layer 1" xmlns="http://www.w3.org/2000/svg" viewBox="0 0 230.37 228.84"><defs><style>.cls-1{fill:#72b0e0;}.cls-2{fill:#b3dbf5;}.cls-3{fill:#fff;}</style></defs><title>logo-icon</title><path class="cls-1" d="M41.35,0H189a41.35,41.35,0,0,1,41.35,41.35V187.49A41.35,41.35,0,0,1,189,228.84H0a0,0,0,0,1,0,0V41.35A41.35,41.35,0,0,1,41.35,0Z"/><circle class="cls-2" cx="165.45" cy="156.84" r="13.73"/><path class="cls-3" d="M102.47,342.45v-87.1A12.31,12.31,0,0,1,114.78,243H147q12.15,0,20.47,3.67a28.09,28.09,0,0,1,12.57,10.13,26.58,26.58,0,0,1,4.23,14.92,24.74,24.74,0,0,1-2.55,11.48,22.69,22.69,0,0,1-7,8.17,29.53,29.53,0,0,1-10.42,4.65v.6a26.44,26.44,0,0,1,12.11,3.79,24.6,24.6,0,0,1,8.81,9.18,28,28,0,0,1,3.3,13.95,29.94,29.94,0,0,1-4.38,16.13,29.48,29.48,0,0,1-13,11.06q-8.67,4-21.34,4H114.8A12.33,12.33,0,0,1,102.47,342.45Zm22.72-55.88a3.12,3.12,0,0,0,3.12,3.12h16.23a20.82,20.82,0,0,0,8.77-1.73,13.55,13.55,0,0,0,5.85-4.95,13.71,13.71,0,0,0,2.1-7.65,12.81,12.81,0,0,0-4.35-10.12q-4.35-3.83-12.15-3.83H127.18a2,2,0,0,0-2,2Zm0,47.78a2,2,0,0,0,2,2h18.72q9.45,0,14.24-3.86a12.82,12.82,0,0,0,4.81-10.54,15,15,0,0,0-2.22-8.21,14.73,14.73,0,0,0-6.37-5.44,23.45,23.45,0,0,0-10-1.95H127.16a2,2,0,0,0-2,2Z" transform="translate(-42.44 -185.23)"/></svg>