<svg id="Layer_1" data-name="Layer 1" xmlns="http://www.w3.org/2000/svg" viewBox="0 0 763.7 228.84"><defs><style>.cls-1{fill:#fff;}.cls-2{fill:#72b0e0;}.cls-3{fill:#b3dbf5;}</style></defs><title>logo-dark</title><path class="cls-1" d="M310.18,359V245.4h45.27q12.35,0,20.8,3.73A28.55,28.55,0,0,1,389,259.42a27,27,0,0,1,4.3,15.17,25.1,25.1,0,0,1-2.59,11.66,23,23,0,0,1-7.16,8.3A30.05,30.05,0,0,1,373,299.28v.61a26.86,26.86,0,0,1,12.3,3.85,25.11,25.11,0,0,1,9,9.33,28.46,28.46,0,0,1,3.35,14.18,30.39,30.39,0,0,1-4.46,16.38,29.83,29.83,0,0,1-13.26,11.24q-8.81,4.08-21.68,4.08Zm23.09-66.15h19.66a21.13,21.13,0,0,0,8.92-1.75,13.42,13.42,0,0,0,8.08-12.81A13,13,0,0,0,365.51,268q-4.42-3.88-12.35-3.89H333.27Zm0,47.4h21q9.6,0,14.47-3.93a13,13,0,0,0,4.88-10.7,15.27,15.27,0,0,0-2.25-8.35,14.93,14.93,0,0,0-6.47-5.52,23.85,23.85,0,0,0-10.18-2H333.27Z" transform="translate(-42.44 -185.23)"/><path class="cls-1" d="M449.11,360.7q-12.44,0-21.72-5.37a37,37,0,0,1-14.41-15q-5.1-9.63-5.1-22.44t5.1-22.56a37,37,0,0,1,14.41-15.05q9.28-5.37,21.72-5.37t21.79,5.37a37.12,37.12,0,0,1,14.33,15.05q5.1,9.69,5.1,22.56t-5.1,22.44a37.11,37.11,0,0,1-14.33,15Q461.68,360.7,449.11,360.7Zm0-18.14a15.88,15.88,0,0,0,9.86-3.08,19.58,19.58,0,0,0,6.29-8.65,39.55,39.55,0,0,0,0-26.07,19.64,19.64,0,0,0-6.29-8.65,17.29,17.29,0,0,0-19.7,0,19.28,19.28,0,0,0-6.28,8.62,40.33,40.33,0,0,0,0,26.1,19.27,19.27,0,0,0,6.28,8.65A16,16,0,0,0,449.11,342.56Z" transform="translate(-42.44 -185.23)"/><path class="cls-1" d="M542,360.7q-12.42,0-21.72-5.37a36.89,36.89,0,0,1-14.4-15q-5.1-9.63-5.11-22.44t5.11-22.56a36.9,36.9,0,0,1,14.4-15.05q9.3-5.37,21.72-5.37t21.8,5.37a37.1,37.1,0,0,1,14.32,15.05q5.11,9.69,5.11,22.56t-5.11,22.44a37.08,37.08,0,0,1-14.32,15Q554.58,360.7,542,360.7Zm0-18.14a15.93,15.93,0,0,0,9.87-3.08,19.66,19.66,0,0,0,6.29-8.65,39.55,39.55,0,0,0,0-26.07,19.72,19.72,0,0,0-6.29-8.65,17.29,17.29,0,0,0-19.7,0,19.3,19.3,0,0,0-6.29,8.62,40.33,40.33,0,0,0,0,26.1,19.28,19.28,0,0,0,6.29,8.65A16,16,0,0,0,542,342.56Z" transform="translate(-42.44 -185.23)"/><path class="cls-1" d="M597.25,359V245.4h22.64V359Zm20.5-24V308h2.82l28-31.7H675L638.4,317.87h-5.26Zm32.39,24L624.61,322.9l15-15.93,37,52Z" transform="translate(-42.44 -185.23)"/><path class="cls-1" d="M707.83,245.4V359H685.19V245.4Z" transform="translate(-42.44 -185.23)"/><path class="cls-1" d="M727.49,390l2.28-17.53,6.94.31a15,15,0,0,0,6.1-.16,7.69,7.69,0,0,0,4.15-2.78,13.86,13.86,0,0,0,2.4-5.68l1.52-5.33-31.47-82.53h23.93l13.79,41.76q2.52,7.69,4.42,15.36t4,15.66h-5.87q2-8,4.07-15.7t4.61-15.32l14.18-41.76h23.62l-35.81,94A40.36,40.36,0,0,1,764,381.73a24.19,24.19,0,0,1-9.11,7,30.75,30.75,0,0,1-12.57,2.37c-2.7,0-5.34-.11-7.93-.31S729.52,390.34,727.49,390Z" transform="translate(-42.44 -185.23)"/><path class="cls-2" d="M41.35,0H189a41.35,41.35,0,0,1,41.35,41.35V187.49A41.35,41.35,0,0,1,189,228.84H0a0,0,0,0,1,0,0V41.35A41.35,41.35,0,0,1,41.35,0Z"/><circle class="cls-3" cx="165.45" cy="156.84" r="13.73"/><path class="cls-1" d="M102.47,342.45v-87.1A12.31,12.31,0,0,1,114.78,243H147q12.15,0,20.47,3.67a28.09,28.09,0,0,1,12.57,10.13,26.58,26.58,0,0,1,4.23,14.92,24.74,24.74,0,0,1-2.55,11.48,22.69,22.69,0,0,1-7,8.17,29.53,29.53,0,0,1-10.42,4.65v.6a26.44,26.44,0,0,1,12.11,3.79,24.6,24.6,0,0,1,8.81,9.18,28,28,0,0,1,3.3,13.95,29.94,29.94,0,0,1-4.38,16.13,29.48,29.48,0,0,1-13,11.06q-8.67,4-21.34,4H114.8A12.33,12.33,0,0,1,102.47,342.45Zm22.72-55.88a3.12,3.12,0,0,0,3.12,3.12h16.23a20.82,20.82,0,0,0,8.77-1.73,13.55,13.55,0,0,0,5.85-4.95,13.71,13.71,0,0,0,2.1-7.65,12.81,12.81,0,0,0-4.35-10.12q-4.35-3.83-12.15-3.83H127.18a2,2,0,0,0-2,2Zm0,47.78a2,2,0,0,0,2,2h18.72q9.45,0,14.24-3.86a12.82,12.82,0,0,0,4.81-10.54,15,15,0,0,0-2.22-8.21,14.73,14.73,0,0,0-6.37-5.44,23.45,23.45,0,0,0-10-1.95H127.16a2,2,0,0,0-2,2Z" transform="translate(-42.44 -185.23)"/></svg>